<svg width="29" height="25" viewBox="0 0 29 25" fill="none" xmlns="http://www.w3.org/2000/svg">
<g clip-path="url(#clip0_20_12540)">
<path d="M14 6.72727C16.3333 5.12299 21.7398 4 28 4V21.2727C21.6829 21.2727 16.2764 22.3957 14 24V6.72727Z" fill="#3D4C5E" stroke="#3D4C5E" stroke-width="2" stroke-miterlimit="10" stroke-linejoin="round"/>
<path d="M14 6.44028C16 3.2623 20.5882 1 26 1V18.5597C20.6471 18.5597 16 20.822 14.0588 24V6.44028H14Z" fill="white" stroke="#3D4C5E" stroke-width="2" stroke-miterlimit="10" stroke-linejoin="round"/>
<path d="M14 6.6738C11.8862 5.12299 6.86585 4 1 4V21.2727C6.86585 21.2727 11.8862 22.3957 14 24V6.6738Z" fill="#3D4C5E" stroke="#3D4C5E" stroke-width="2" stroke-miterlimit="10" stroke-linejoin="round"/>
<path d="M14 6.44028C12.2118 3.2623 7.98522 1 3 1V18.5597C7.93104 18.5597 12.2118 20.822 14 24V6.44028Z" fill="white" stroke="#3D4C5E" stroke-width="2" stroke-miterlimit="10" stroke-linejoin="round"/>
</g>
<defs>
<clipPath id="clip0_20_12540">
<rect width="29" height="25" fill="white"/>
</clipPath>
</defs>
</svg>
