<svg width="41" height="40" viewBox="0 0 41 40" fill="none" xmlns="http://www.w3.org/2000/svg">
<path d="M22.9719 0.816734C22.9721 0.816691 22.9725 0.818619 22.9728 0.822636C22.9719 0.818784 22.9718 0.816778 22.9719 0.816734ZM16.3276 17.3721C15.8509 9.99585 19.2755 3.95713 22.9747 1.11282C23.0528 7.69562 25.857 11.3585 28.3631 14.6321L28.4284 14.7174L28.4328 14.7231L28.4447 14.739C30.817 17.8849 33.1177 20.9358 32.8047 25.9395L32.8042 25.9482L32.8038 25.9569C32.4877 32.9663 26.791 38.6611 20.0303 38.9871C16.0639 39.1499 12.7008 37.7626 10.3249 35.3322C7.9437 32.8963 6.5 29.3552 6.5 25.1279C6.5 21.1668 8.29369 17.617 10.4215 14.045L10.7614 14.5708L11.2515 15.329C11.9427 16.5738 12.6426 17.6577 13.3532 18.5739L13.387 18.6175L13.4254 18.6571C13.9327 19.1803 14.6778 19.379 15.3517 19.0631C15.9904 18.7636 16.3297 18.11 16.3297 17.4366V17.4043L16.3276 17.3721Z" stroke="#1D242D" stroke-width="2"/>
</svg>
