<svg width="24" height="24" viewBox="0 0 24 24" fill="none" xmlns="http://www.w3.org/2000/svg">
<path d="M16.3945 9.01495C16.4097 9.03471 16.4248 9.05443 16.4398 9.07412C17.868 10.968 19.1616 12.6926 18.9836 15.5387L18.9831 15.5474L18.9827 15.5561C18.8022 19.5589 15.546 22.8065 11.7003 22.9927C9.42863 23.0855 7.52305 22.2926 6.18099 20.9197C4.83358 19.5413 4 17.5211 4 15.0767C4 13.0145 4.85204 11.1293 5.96947 9.18948L6.10773 9.40338C6.52782 10.1588 6.95653 10.8231 7.39584 11.3895L7.42966 11.4331L7.46806 11.4727C7.87364 11.891 8.50015 12.0722 9.08081 11.8C9.62633 11.5443 9.89782 10.9956 9.89782 10.4619V10.4297L9.89574 10.3974C9.64504 6.51877 11.2506 3.29341 13.1198 1.50864C13.3787 5.07579 14.9905 7.181 16.3945 9.01495Z" stroke="#3D4C5E" stroke-width="2"/>
</svg>
