<svg width="250" height="64" viewBox="0 0 250 64" fill="none" xmlns="http://www.w3.org/2000/svg">
<path d="M52.4869 21.8228C52.7333 21.613 52.9797 21.4032 53.4726 21.4032H59.1402C60.3722 21.4032 61.1115 21.1933 61.6043 20.9835C62.0972 20.7737 62.3436 20.1441 62.3436 19.5146V19.095C62.3436 18.2556 62.0972 17.836 61.6043 17.6261C61.1115 17.4163 60.3722 17.2064 59.1402 17.2064H55.4439C53.719 17.2064 52.2405 16.5769 51.0084 15.5278C49.7763 14.4786 48.7906 13.0097 48.2978 11.7507C47.805 10.2819 47.5585 8.813 47.5585 7.55399C47.5585 6.5048 47.805 5.66546 48.5442 4.82612C49.2835 3.98677 50.0227 3.77694 51.2548 3.77694C51.994 3.77694 52.7333 3.98677 53.2261 4.40644C53.719 4.82612 54.2118 5.45562 54.2118 6.08513C54.4582 6.71464 54.7046 7.55398 54.9511 8.813C55.1975 10.2819 55.9367 11.5409 57.1688 12.3802C58.4009 13.2196 59.8794 13.6392 61.8507 13.6392C63.5757 13.6392 64.8078 13.2196 65.7934 12.3802C66.7791 11.5409 67.2719 10.4917 67.2719 9.02284C67.2719 6.71464 65.7934 4.61628 62.8364 3.14743C59.8794 1.46874 55.9367 0.629395 51.2548 0.629395C46.8193 0.629395 43.3694 1.67858 40.6588 3.5671C37.9483 5.45562 36.7162 8.18349 36.7162 11.5409V16.3671C36.7162 16.9966 36.7162 22.2425 36.7162 23.2917V26.8589C36.7162 27.6982 36.9626 28.3278 37.4554 28.9573C39.1803 31.4753 40.4124 34.2032 40.4124 37.7704C40.4124 41.7573 38.9339 45.5343 36.4697 48.472C35.9769 49.1015 35.7305 49.3114 34.9912 49.731C34.0056 50.7802 34.252 50.7802 34.252 51.1999C34.252 51.6196 34.4984 52.0392 35.2377 52.2491C35.9769 52.6687 36.7162 52.6687 37.7018 52.6687H51.0084C51.994 52.6687 52.9797 52.4589 53.4726 52.2491C53.9654 52.0392 54.4582 51.6196 54.4582 51.1999C54.4582 50.7802 53.9654 50.3605 53.2261 49.731C52.4869 49.1015 51.994 48.472 51.994 47.6327V22.872C51.994 22.4523 52.2405 22.2425 52.4869 21.8228Z" fill="white"/>
<path d="M102.263 47.6328V31.0557C102.263 26.2295 100.538 22.6623 97.0884 20.3541C93.6386 17.836 89.203 16.7869 83.289 16.7869C78.6071 16.7869 74.6644 17.4164 71.2146 18.4656C67.7647 19.5147 65.547 21.1934 64.3149 23.0819C63.3292 24.7606 63.3292 26.4393 64.5613 27.9082C65.7934 29.377 67.2719 30.2164 69.7361 30.2164C72.6931 30.2164 75.1572 28.7475 77.1286 26.0197C78.3607 24.1311 79.3463 22.8721 80.332 21.8229C81.3177 20.9836 82.3034 20.3541 83.289 20.3541C84.7675 20.3541 85.7532 20.9836 86.246 22.2426C86.7389 23.5016 86.9853 25.8098 86.9853 29.1672V30.4262H86.246C81.5641 30.4262 77.6214 30.8459 74.418 31.4754C70.9682 32.1049 68.504 33.1541 66.5326 34.2033C64.5613 35.4623 63.3292 36.7213 62.3435 38.1901C61.3579 39.659 61.1115 41.3377 61.1115 43.0164C61.1115 46.1639 62.3435 48.6819 65.0541 50.5705C67.7647 52.459 71.2146 53.2983 75.4037 53.2983C80.332 53.2983 84.2747 51.6197 86.7389 48.4721C87.4781 50.1508 88.2174 51.4098 88.9566 51.8295C89.6959 52.2492 90.928 52.6688 92.6529 52.6688H101.031C102.017 52.6688 103.002 52.459 103.495 52.2492C103.988 52.0393 104.481 51.6196 104.481 51.2C104.481 50.7803 103.988 50.3606 103.249 49.7311C102.51 49.1016 102.263 48.4721 102.263 47.6328ZM86.7389 41.7574C86.7389 43.0164 86.246 44.2754 85.2604 45.5344C84.2747 46.7934 83.289 47.4229 81.8105 47.4229C80.332 47.4229 79.0999 46.7934 78.1143 45.7442C77.1286 44.6951 76.6358 43.2262 76.6358 41.3377C76.6358 38.8197 77.375 36.9311 79.0999 35.4623C80.8248 33.9934 83.0426 33.3639 86.246 33.3639H86.7389V41.7574Z" fill="white"/>
<path d="M125.427 47.6328V2.51803C125.427 0.839344 124.687 0 123.455 0C122.962 0 122.223 0.209836 121.237 0.419672L110.395 3.35738C109.409 3.56721 108.67 3.98689 108.177 4.19672C107.684 4.61639 107.438 4.82623 107.684 5.2459C107.684 5.45574 108.177 5.87541 108.917 6.50492C109.656 7.13443 110.149 7.97377 110.149 8.81312V47.6328C110.149 48.4721 109.656 49.1016 108.917 49.7312C108.177 50.3607 107.684 50.7803 107.684 51.2C107.684 51.6197 107.931 52.0393 108.67 52.2492C109.409 52.459 110.149 52.6689 111.134 52.6689H124.441C125.426 52.6689 126.412 52.459 126.905 52.2492C127.644 51.8295 127.891 51.6197 127.891 51.2C127.891 50.7803 127.398 50.3607 126.659 49.7312C125.919 49.1016 125.427 48.4721 125.427 47.6328Z" fill="white"/>
<path d="M148.836 47.6328V2.51803C148.836 0.839344 148.097 0 146.865 0C146.372 0 145.633 0.209836 144.647 0.419672L133.805 3.35738C132.819 3.56721 132.08 3.98689 131.587 4.19672C131.094 4.61639 130.848 4.82623 131.094 5.2459C131.094 5.45574 131.587 5.87541 132.326 6.50492C133.065 7.13443 133.558 7.97377 133.558 8.81312V47.6328C133.558 48.4721 133.065 49.1016 132.326 49.7312C131.587 50.3607 131.094 50.7803 131.094 51.2C131.094 51.6197 131.341 52.0393 132.08 52.2492C132.819 52.459 133.558 52.6689 134.544 52.6689H147.85C148.836 52.6689 149.822 52.459 150.315 52.2492C151.054 51.8295 151.3 51.6197 151.3 51.2C151.3 50.7803 150.808 50.3607 150.068 49.7312C149.329 49.1016 148.836 48.4721 148.836 47.6328Z" fill="white"/>
<path d="M195.409 47.6328V31.0557C195.409 26.2295 193.684 22.6623 190.234 20.3541C186.784 17.836 182.349 16.7869 176.435 16.7869C171.753 16.7869 167.81 17.4164 164.36 18.4656C160.911 19.5147 158.693 21.1934 157.461 23.0819C156.475 24.7606 156.475 26.4393 157.707 27.9082C158.939 29.377 160.418 30.2164 162.882 30.2164C165.839 30.2164 168.303 28.7475 170.274 26.0197C171.506 24.1311 172.492 22.8721 173.478 21.8229C174.463 20.9836 175.449 20.3541 176.435 20.3541C177.913 20.3541 178.899 20.9836 179.392 22.2426C179.885 23.5016 180.131 25.8098 180.131 29.1672V30.4262H179.638C174.956 30.4262 171.014 30.8459 167.81 31.4754C164.36 32.1049 161.896 33.1541 159.925 34.2033C157.954 35.4623 156.721 36.7213 155.736 38.1901C154.75 39.659 154.504 41.3377 154.504 43.0164C154.504 46.1639 155.736 48.6819 158.446 50.5705C161.157 52.459 164.607 53.2983 168.796 53.2983C173.724 53.2983 177.667 51.6197 180.131 48.4721C180.87 50.1508 181.61 51.4098 182.349 51.8295C183.088 52.2492 184.32 52.6688 186.045 52.6688H194.423C195.409 52.6688 196.395 52.459 196.887 52.2492C197.38 52.0393 197.873 51.6196 197.873 51.2C197.873 50.7803 197.38 50.3606 196.641 49.7311C195.902 49.1016 195.409 48.4721 195.409 47.6328ZM179.885 41.7574C179.885 43.0164 179.392 44.2754 178.406 45.5344C177.42 46.7934 176.435 47.4229 174.956 47.4229C173.478 47.4229 172.246 46.7934 171.26 45.7442C170.274 44.6951 170.028 43.0164 170.028 41.1278C170.028 38.6098 170.767 36.7213 172.492 35.2524C174.217 33.7836 176.435 33.1541 179.638 33.1541H179.885V41.7574Z" fill="white"/>
<path d="M230.4 16.5771C224.733 16.5771 220.79 18.2558 218.572 21.823L218.079 19.5149C217.833 18.4657 217.34 17.6263 216.847 17.4165C216.355 16.9968 215.615 16.9968 214.876 17.2067L204.034 20.1444C202.802 20.3542 202.062 20.7739 201.569 20.9837C201.077 21.4034 200.83 21.6132 201.077 22.0329C201.077 22.2427 201.569 22.6624 202.309 23.2919C203.048 23.9214 203.294 24.7608 203.294 25.6001V58.7542C203.294 59.3837 203.048 60.0132 202.802 60.4329C202.309 60.8526 202.062 61.2722 201.569 61.4821C201.077 61.6919 201.077 62.1116 201.077 62.3214C201.077 62.7411 201.323 63.1608 202.062 63.3706C202.802 63.5804 203.541 63.7903 204.526 63.7903H217.833C218.819 63.7903 219.804 63.5804 220.297 63.3706C220.79 63.1608 221.283 62.7411 221.283 62.3214C221.283 62.1116 221.036 61.6919 220.79 61.4821C220.297 61.2722 220.051 60.8526 219.558 60.4329C219.065 60.0132 219.065 59.3837 219.065 58.7542V47.8427C221.529 51.2001 225.226 53.0886 230.154 53.0886C235.329 53.0886 239.518 51.4099 242.475 48.2624C245.432 45.1149 246.91 40.7083 246.91 35.2526C246.91 29.7968 245.432 25.3903 242.228 22.0329C239.025 18.6755 234.836 16.5771 230.4 16.5771ZM228.922 44.2755C227.936 46.164 226.704 47.2132 224.979 47.2132C223.254 47.2132 222.022 46.5837 220.79 45.3247C219.558 44.0657 219.065 42.387 218.819 40.4985V40.2886V40.0788V27.9083C218.819 26.4394 219.312 25.1804 220.051 24.1312C220.79 23.0821 222.022 22.6624 223.254 22.6624C225.226 22.6624 226.95 23.9214 228.183 26.2296C229.415 28.5378 230.4 31.8952 230.4 36.0919C230.4 39.6591 229.907 42.387 228.922 44.2755Z" fill="white"/>
<path d="M30.8023 25.1804C27.3525 21.6132 23.9026 17.8361 23.9026 10.9115C23.9026 10.4918 23.6562 10.282 23.4098 10.0722C23.1634 9.86234 22.6705 9.86234 22.4241 10.0722C16.7565 13.4295 11.5817 21.1935 13.0603 30.4263C11.0889 29.3771 9.85682 27.6984 8.62473 26.0197C8.1319 25.3902 7.88548 24.7607 7.39265 24.341C7.14623 24.1312 6.89981 23.9214 6.40698 23.9214C6.16056 23.9214 5.66772 24.1312 5.66772 24.341C2.71071 28.3279 0.00012207 32.5246 0.00012207 37.3509C0.00012207 46.5836 7.63906 53.2984 18.235 53.2984C28.831 53.2984 36.9627 46.3738 36.9627 37.3509C37.2092 31.8951 34.0057 28.5377 30.8023 25.1804Z" fill="white"/>
</svg>
