<svg width="41" height="41" viewBox="0 0 41 41" fill="none" xmlns="http://www.w3.org/2000/svg">
<path d="M27.1667 35.5V32.1667C27.1667 30.3986 26.4644 28.7029 25.2141 27.4526C23.9639 26.2024 22.2682 25.5 20.5001 25.5H8.83342C7.0653 25.5 5.36961 26.2024 4.11937 27.4526C2.86913 28.7029 2.16675 30.3986 2.16675 32.1667V35.5M33.8334 13.8333V23.8333M38.8334 18.8333H28.8334M21.3334 12.1667C21.3334 15.8486 18.3486 18.8333 14.6667 18.8333C10.9848 18.8333 8.00008 15.8486 8.00008 12.1667C8.00008 8.48477 10.9848 5.5 14.6667 5.5C18.3486 5.5 21.3334 8.48477 21.3334 12.1667Z" stroke="#1D242D" stroke-width="2" stroke-linecap="round" stroke-linejoin="round"/>
</svg>
